<svg xmlns="http://www.w3.org/2000/svg" xmlns:xlink="http://www.w3.org/1999/xlink" width="500" zoomAndPan="magnify" viewBox="0 0 375 374.999991" height="500" preserveAspectRatio="xMidYMid meet" version="1.0"><defs><clipPath id="c4d39f2a92"><path d="M 92.238281 196 L 204 196 L 204 318 L 92.238281 318 Z M 92.238281 196 " clip-rule="nonzero"/></clipPath><clipPath id="d483d03624"><path d="M 165 57 L 282.738281 57 L 282.738281 316 L 165 316 Z M 165 57 " clip-rule="nonzero"/></clipPath></defs><g clip-path="url(#c4d39f2a92)"><path fill="#000000" d="M 203.484375 241.140625 L 203.484375 209.136719 L 202.664062 209.136719 C 186.597656 209.136719 174.238281 204.648438 166.117188 196.023438 L 166.117188 275.242188 C 166.117188 280.160156 165.296875 283.402344 163.660156 284.898438 C 162.269531 286.21875 159.671875 286.929688 155.859375 287.109375 C 155.21875 287.179688 154.539062 287.179688 153.828125 287.179688 L 141.894531 287.179688 C 136.980469 287.179688 133.703125 286.433594 132.0625 284.898438 C 130.425781 283.402344 129.605469 280.195312 129.605469 275.242188 L 129.605469 232.515625 L 92.238281 232.515625 L 92.238281 280.980469 C 92.238281 305.070312 104.957031 317.113281 130.425781 317.113281 L 165.296875 317.113281 C 167.542969 317.113281 169.714844 317.007812 171.78125 316.828125 C 177.835938 316.292969 183 314.90625 187.3125 312.730469 C 198.105469 307.277344 203.484375 296.695312 203.484375 280.980469 Z M 203.484375 241.140625 " fill-opacity="1" fill-rule="nonzero"/></g><g clip-path="url(#d483d03624)"><path fill="#000000" d="M 244.980469 168.871094 L 214.207031 168.871094 C 213.207031 168.871094 212.316406 168.796875 211.460938 168.691406 C 211.179688 168.65625 210.929688 168.621094 210.679688 168.585938 C 210.003906 168.511719 209.398438 168.40625 208.828125 168.265625 C 208.613281 168.226562 208.398438 168.15625 208.1875 168.085938 C 207.6875 167.941406 207.1875 167.800781 206.761719 167.585938 C 206.691406 167.550781 206.652344 167.550781 206.582031 167.515625 C 206.011719 167.265625 205.550781 166.945312 205.15625 166.589844 C 204.445312 165.949219 203.910156 164.984375 203.519531 163.738281 L 203.519531 93.109375 C 203.910156 91.824219 204.445312 90.863281 205.15625 90.222656 C 205.550781 89.867188 206.011719 89.542969 206.582031 89.296875 C 206.617188 89.257812 206.691406 89.257812 206.761719 89.222656 C 207.1875 89.046875 207.652344 88.867188 208.1875 88.726562 C 208.398438 88.652344 208.613281 88.582031 208.828125 88.546875 C 209.398438 88.402344 210.003906 88.332031 210.679688 88.226562 C 210.929688 88.191406 211.214844 88.15625 211.460938 88.121094 C 212.316406 88.046875 213.207031 87.976562 214.207031 87.941406 L 232.195312 87.941406 C 237.109375 87.941406 240.421875 88.6875 242.0625 90.1875 C 243.699219 91.71875 244.519531 94.925781 244.519531 99.84375 L 244.519531 131.914062 L 281.886719 131.914062 L 281.886719 94.140625 C 281.921875 70.050781 269.203125 57.972656 243.734375 57.972656 L 203.519531 57.972656 C 197.394531 57.972656 192.050781 58.648438 187.453125 60.039062 C 175.519531 63.601562 168.433594 71.726562 166.152344 84.378906 C 165.617188 87.371094 165.332031 90.648438 165.332031 94.140625 L 165.332031 161.921875 C 165.332031 165.484375 165.617188 168.835938 166.152344 171.863281 C 169.253906 189.574219 181.46875 198.449219 202.699219 198.449219 L 233.085938 198.449219 C 238 198.449219 241.242188 199.195312 242.738281 200.691406 C 244.234375 202.226562 245.019531 205.433594 245.019531 210.351562 L 245.019531 273.210938 C 245.019531 278.09375 244.234375 281.371094 242.738281 282.867188 C 241.242188 284.363281 238.035156 285.113281 233.085938 285.113281 L 215.878906 285.113281 C 215.273438 285.113281 214.738281 285.113281 214.171875 285.078125 C 213.351562 299.511719 208.292969 308.917969 202.203125 315.046875 C 202.914062 315.082031 203.625 315.082031 204.375 315.082031 L 244.199219 315.082031 C 269.917969 315.082031 282.777344 303.039062 282.777344 278.914062 L 282.777344 205.003906 C 282.738281 180.914062 270.128906 168.871094 244.980469 168.871094 Z M 244.980469 168.871094 " fill-opacity="1" fill-rule="nonzero"/></g></svg>